<?xml version="1.0" standalone="no"?>
<!DOCTYPE svg PUBLIC "-//W3C//DTD SVG 20010904//EN"
 "http://www.w3.org/TR/2001/REC-SVG-20010904/DTD/svg10.dtd">
<svg version="1.0" xmlns="http://www.w3.org/2000/svg"
 width="400.000000pt" height="400.000000pt" viewBox="0 0 400.000000 400.000000"
 preserveAspectRatio="xMidYMid meet">
<metadata>
Created by potrace 1.11, written by Peter Selinger 2001-2013
</metadata>
<g transform="translate(0.000000,400.000000) scale(0.100000,-0.100000)"
fill="#000000" stroke="none">
<path d="M1598 3820 c-17 -13 -28 -31 -28 -45 0 -37 32 -95 55 -100 200 -40
272 -63 405 -130 179 -91 353 -243 477 -418 74 -105 167 -285 216 -417 55
-150 55 -135 -5 -169 -29 -17 -55 -27 -59 -23 -3 4 -20 50 -38 102 -95 279
-262 531 -450 681 -219 173 -475 259 -775 259 -111 0 -127 -2 -122 -15 3 -9
38 -62 78 -118 62 -87 73 -108 72 -142 0 -31 -38 -116 -159 -363 -182 -372
-188 -391 -141 -487 15 -30 39 -63 54 -73 67 -47 162 -92 195 -92 32 0 42 8
102 79 93 113 117 131 171 131 100 0 131 -40 150 -194 8 -61 22 -141 32 -178
l19 -68 -483 -277 c-265 -153 -482 -278 -481 -279 1 -1 547 -315 1212 -699
666 -384 1230 -709 1254 -723 l44 -26 -7 1440 c-4 791 -9 1440 -10 1441 -1 1
-91 -50 -201 -114 -110 -63 -205 -117 -211 -120 -6 -2 -14 9 -17 26 -11 55
-79 225 -134 336 -236 476 -621 750 -1108 790 -73 6 -83 5 -107 -15z m172
-668 c18 -14 22 -28 22 -70 0 -133 -152 -208 -257 -127 -31 23 -36 32 -33 63
2 28 10 40 31 52 25 14 30 13 58 -2 56 -33 79 -21 79 42 0 18 8 35 22 44 29
21 51 20 78 -2z m-430 -562 c44 -23 59 -57 42 -95 -22 -48 -101 -37 -137 19
-25 37 1 84 53 95 1 1 21 -8 42 -19z"/>
<path d="M908 3232 c50 -53 124 -133 165 -177 l74 -80 52 104 c29 57 49 107
44 111 -4 4 -82 31 -173 59 -91 29 -184 58 -208 66 l-44 14 90 -97z"/>
</g>
</svg>
